<?xml version="1.0" encoding="UTF-8" standalone="no"?>
<!DOCTYPE svg PUBLIC "-//W3C//DTD SVG 1.1//EN" "http://www.w3.org/Graphics/SVG/1.1/DTD/svg11.dtd">
<svg width="100%" height="100%" viewBox="0 0 56 56" version="1.1" xmlns="http://www.w3.org/2000/svg" xmlns:xlink="http://www.w3.org/1999/xlink" xml:space="preserve" xmlns:serif="http://www.serif.com/" style="fill-rule:evenodd;clip-rule:evenodd;stroke-linejoin:round;stroke-miterlimit:2;">
    <g transform="matrix(1,0,0,1,-7794.81,-159.989)">
        <g transform="matrix(8.10112,0,0,1.30578,0,0)">
            <g transform="matrix(1.69516,0,0,1.69516,919.711,-39.7508)">
                <g transform="matrix(0.12344,0,0,0.765826,4.93759,0)">
                    <path d="M196,126.46C196,125.654 195.346,125 194.54,125L164.46,125C163.654,125 163,125.654 163,126.46L163,156.54C163,157.346 163.654,158 164.46,158L194.54,158C195.346,158 196,157.346 196,156.54L196,126.46Z" style="fill:rgb(10,102,194);"/>
                </g>
                <g transform="matrix(0.0130435,0,0,0.0809227,10.5373,-223.64)">
                    <path d="M1232.59,4069.42L1201.66,4069.42L1201.66,4169.34L1232.59,4169.34L1232.59,4069.42ZM1252.36,4069.42L1252.36,4169.34L1282.03,4169.34L1282.03,4116.89C1282.03,4102.84 1288.49,4094.47 1300.87,4094.47C1312.24,4094.47 1317.7,4102.51 1317.7,4116.89L1317.7,4169.34L1348.49,4169.34L1348.49,4106.08C1348.49,4079.31 1333.32,4066.37 1312.13,4066.37C1290.94,4066.37 1282.03,4082.88 1282.03,4082.88L1282.03,4069.42L1252.36,4069.42ZM1216.98,4056.34C1227.08,4056.34 1235.27,4048.08 1235.27,4037.9C1235.27,4027.72 1227.08,4019.47 1216.98,4019.47C1206.88,4019.47 1198.69,4027.72 1198.69,4037.9C1198.69,4048.08 1206.88,4056.34 1216.98,4056.34Z" style="fill:white;fill-rule:nonzero;"/>
                </g>
            </g>
        </g>
    </g>
</svg>
